<svg xmlns="http://www.w3.org/2000/svg" viewBox="0 0 317.33 277.92"><defs><style>.cls-1{fill:#61836c;}</style></defs><title>Zasób 1</title><g id="Warstwa_2"><g id="Warstwa_1-2"><path class="cls-1" d="M173.67,175.86c-52.44-32.34-82.3-69.32-71.62-116.63C108,33,124.52,12.29,148.63,0A158.65,158.65,0,0,0,50.08,274L70.94,235.2c18,15.84,46.48,32.53,78.74,39.81,40.46,9.13,67.06-3.83,73.12-30.66C228.41,219.48,214.3,200.92,173.67,175.86Zm143.66-17.52a157.9,157.9,0,0,0-32-95.55,161.86,161.86,0,0,0-52.19-21.64c-39.94-9-62,7.53-66.27,26.56-5.73,25.36,11.61,41.57,53.84,69.05,53,33.64,76,67.64,68.16,112.27A158,158,0,0,0,317.33,158.34Z"/></g></g></svg>
